<svg width="0" height="0" class="hidden">
  <symbol fill="none" xmlns="http://www.w3.org/2000/svg" viewBox="0 0 24 24" id="chevron">
    <path fill-rule="evenodd" clip-rule="evenodd" d="M18.7071 8.29289C18.3166 7.90237 17.6834 7.90237 17.2929 8.29289L12 13.5858L6.70711 8.29289C6.31658 7.90237 5.68342 7.90237 5.29289 8.29289C4.90237 8.68342 4.90237 9.31658 5.29289 9.70711L11.2929 15.7071C11.6834 16.0976 12.3166 16.0976 12.7071 15.7071L18.7071 9.70711C19.0976 9.31658 19.0976 8.68342 18.7071 8.29289Z" fill="#000000"></path>
  </symbol>
  <symbol fill="#000000" version="1.1" id="facebook" xmlns="http://www.w3.org/2000/svg" xmlns:xlink="http://www.w3.org/1999/xlink" xml:space="preserve" viewBox="-143 145 512 512">
    <g id="SVGRepo_bgCarrier" stroke-width="0"></g>
    <g id="SVGRepo_tracerCarrier" stroke-linecap="round" stroke-linejoin="round"></g>
    <g id="SVGRepo_iconCarrier">
      <path d="M113,145c-141.4,0-256,114.6-256,256s114.6,256,256,256s256-114.6,256-256S254.4,145,113,145z M169.5,357.6l-2.9,38.3h-39.3 v133H77.7v-133H51.2v-38.3h26.5v-25.7c0-11.3,0.3-28.8,8.5-39.7c8.7-11.5,20.6-19.3,41.1-19.3c33.4,0,47.4,4.8,47.4,4.8l-6.6,39.2 c0,0-11-3.2-21.3-3.2c-10.3,0-19.5,3.7-19.5,14v29.9H169.5z"></path>
    </g>
  </symbol>
  <symbol xmlns="http://www.w3.org/2000/svg" fill="#000000" viewBox="0 0 32 32" id="instagram">
    <g id="SVGRepo_bgCarrier" stroke-width="0"></g>
    <g id="SVGRepo_tracerCarrier" stroke-linecap="round" stroke-linejoin="round"></g>
    <g id="SVGRepo_iconCarrier">
      <g fill="none" fill-rule="evenodd">
        <path d="m0 0h32v32h-32z"></path>
        <path d="m17.0830929.03277248c8.1190907 0 14.7619831 6.64289236 14.7619831 14.76198302v2.3064326c0 8.1190906-6.6429288 14.761983-14.7619831 14.761983h-2.3064325c-8.11909069 0-14.76198306-6.6428924-14.76198306-14.761983v-2.3064326c0-8.11909066 6.64289237-14.76198302 14.76198306-14.76198302zm-.8630324 8.0002641-.2053832-.0002641c-1.7102378 0-3.4204757.05652851-3.4204757.05652851-2.4979736 0-4.52299562 2.02501761-4.52299562 4.52298561 0 0-.05191606 1.4685349-.05624239 3.0447858l-.00028625.2060969c0 1.7648596.05652864 3.590089.05652864 3.5900891 0 2.497968 2.02502202 4.5229856 4.52299562 4.5229856 0 0 1.5990132.0565285 3.2508899.0565285 1.7648634 0 3.6466255-.0565285 3.6466255-.0565285 2.4979736 0 4.4664317-1.9684539 4.4664317-4.4664219 0 0 .0565286-1.8046833.0565286-3.5335605l-.0010281-.4057303c-.0076601-1.5511586-.0555357-3.0148084-.0555357-3.0148084 0-2.4979681-1.9684582-4.46642191-4.4664317-4.46642191 0 0-1.6282521-.05209668-3.2716213-.05626441zm-.2053831 1.43969747c1.4024317 0 3.2005639.04637875 3.2005638.04637875 2.0483524 0 3.3130573 1.2647021 3.3130573 3.31305 0 0 .0463789 1.7674322.0463789 3.1541781 0 1.4176885-.0463789 3.2469355-.0463789 3.2469355 0 2.048348-1.2647049 3.31305-3.3130573 3.31305 0 0-1.5901757.0389711-2.9699093.0454662l-.3697206.0009126c-1.3545375 0-3.0049692-.0463788-3.0049692-.0463788-2.0483172 0-3.36958592-1.321301-3.36958592-3.3695785 0 0-.04637885-1.8359078-.04637885-3.2830941 0-1.3545344.04637885-3.061491.04637885-3.061491 0-2.0483479 1.32130402-3.31305 3.36958592-3.31305 0 0 1.7416035-.04637875 3.1440353-.04637875zm-.0000353 2.46195055c-2.2632951 0-4.0980441 1.8347448-4.0980441 4.098035s1.8347489 4.098035 4.0980441 4.098035 4.0980441-1.8347448 4.0980441-4.098035c0-2.2632901-1.8347489-4.098035-4.0980441-4.098035zm0 1.4313625c1.4727754 0 2.6666784 1.1939004 2.6666784 2.6666725s-1.193903 2.6666726-2.6666784 2.6666726c-1.4727401 0-2.6666784-1.1939005-2.6666784-2.6666726s1.1939031-2.6666725 2.6666784-2.6666725zm4.2941322-2.5685935c-.5468547 0-.9902027.4455321-.9902027.9950991 0 .5495671.443348.9950639.9902027.9950639.5468546 0 .9901674-.4454968.9901674-.9950639 0-.5496023-.4433128-.9950991-.9901674-.9950991z" fill="#202327" fill-rule="nonzero"></path>
      </g>
    </g>
  </symbol>
  <symbol fill="#000000" xmlns="http://www.w3.org/2000/svg" viewBox="0 0 20 20" id="pinterest">
    <g id="SVGRepo_bgCarrier" stroke-width="0"></g>
    <g id="SVGRepo_tracerCarrier" stroke-linecap="round" stroke-linejoin="round"></g>
    <g id="SVGRepo_iconCarrier">
      <path d="M10 .4C4.698.4.4 4.698.4 10s4.298 9.6 9.6 9.6 9.6-4.298 9.6-9.6S15.302.4 10 .4zm.657 11.875c-.616-.047-.874-.352-1.356-.644-.265 1.391-.589 2.725-1.549 3.422-.297-2.104.434-3.682.774-5.359-.579-.975.069-2.936 1.291-2.454 1.503.596-1.302 3.625.581 4.004 1.966.394 2.769-3.412 1.55-4.648-1.762-1.787-5.127-.041-4.713 2.517.1.625.747.815.258 1.678-1.127-.25-1.464-1.139-1.42-2.324.069-1.94 1.743-3.299 3.421-3.486 2.123-.236 4.115.779 4.391 2.777.309 2.254-.959 4.693-3.228 4.517z"></path>
    </g>
  </symbol>
  <symbol fill="#000000" version="1.1" xmlns="http://www.w3.org/2000/svg" viewBox="0 0 32 32" id="spotify">
    <g id="SVGRepo_bgCarrier" stroke-width="0"></g>
    <g id="SVGRepo_tracerCarrier" stroke-linecap="round" stroke-linejoin="round"></g>
    <g id="SVGRepo_iconCarrier">
      <title>spotify</title>
      <path d="M24.849 14.35c-3.206-1.616-6.988-2.563-10.991-2.563-2.278 0-4.484 0.306-6.58 0.881l0.174-0.041c-0.123 0.040-0.265 0.063-0.412 0.063-0.76 0-1.377-0.616-1.377-1.377 0-0.613 0.401-1.132 0.954-1.311l0.010-0.003c5.323-1.575 14.096-1.275 19.646 2.026 0.426 0.258 0.706 0.719 0.706 1.245 0 0.259-0.068 0.502-0.186 0.712l0.004-0.007c-0.29 0.345-0.721 0.563-1.204 0.563-0.273 0-0.529-0.070-0.752-0.192l0.008 0.004zM24.699 18.549c-0.201 0.332-0.561 0.55-0.971 0.55-0.225 0-0.434-0.065-0.61-0.178l0.005 0.003c-2.739-1.567-6.021-2.49-9.518-2.49-1.925 0-3.784 0.28-5.539 0.801l0.137-0.035c-0.101 0.032-0.217 0.051-0.337 0.051-0.629 0-1.139-0.51-1.139-1.139 0-0.509 0.333-0.939 0.793-1.086l0.008-0.002c1.804-0.535 3.878-0.843 6.023-0.843 3.989 0 7.73 1.064 10.953 2.925l-0.106-0.056c0.297 0.191 0.491 0.52 0.491 0.894 0 0.227-0.071 0.437-0.192 0.609l0.002-0.003zM22.899 22.673c-0.157 0.272-0.446 0.452-0.777 0.452-0.186 0-0.359-0.057-0.502-0.154l0.003 0.002c-2.393-1.346-5.254-2.139-8.299-2.139-1.746 0-3.432 0.261-5.020 0.745l0.122-0.032c-0.067 0.017-0.145 0.028-0.224 0.028-0.512 0-0.927-0.415-0.927-0.927 0-0.432 0.296-0.795 0.696-0.898l0.006-0.001c1.581-0.47 3.397-0.74 5.276-0.74 3.402 0 6.596 0.886 9.366 2.44l-0.097-0.050c0.302 0.15 0.506 0.456 0.506 0.809 0 0.172-0.048 0.333-0.132 0.469l0.002-0.004zM16 1.004c0 0 0 0-0 0-8.282 0-14.996 6.714-14.996 14.996s6.714 14.996 14.996 14.996c8.282 0 14.996-6.714 14.996-14.996v0c-0.025-8.272-6.724-14.971-14.993-14.996h-0.002z"></path>
    </g>
  </symbol>
  <symbol fill="#000000" version="1.1" id="twitter" xmlns="http://www.w3.org/2000/svg" xmlns:xlink="http://www.w3.org/1999/xlink" xml:space="preserve" viewBox="-143 145 512 512">
    <g id="SVGRepo_bgCarrier" stroke-width="0"></g>
    <g id="SVGRepo_tracerCarrier" stroke-linecap="round" stroke-linejoin="round"></g>
    <g id="SVGRepo_iconCarrier">
      <path d="M113,145c-141.4,0-256,114.6-256,256s114.6,256,256,256s256-114.6,256-256S254.4,145,113,145z M215.2,361.2 c0.1,2.2,0.1,4.5,0.1,6.8c0,69.5-52.9,149.7-149.7,149.7c-29.7,0-57.4-8.7-80.6-23.6c4.1,0.5,8.3,0.7,12.6,0.7 c24.6,0,47.3-8.4,65.3-22.5c-23-0.4-42.5-15.6-49.1-36.5c3.2,0.6,6.5,0.9,9.9,0.9c4.8,0,9.5-0.6,13.9-1.9 C13.5,430-4.6,408.7-4.6,383.2v-0.6c7.1,3.9,15.2,6.3,23.8,6.6c-14.1-9.4-23.4-25.6-23.4-43.8c0-9.6,2.6-18.7,7.1-26.5 c26,31.9,64.7,52.8,108.4,55c-0.9-3.8-1.4-7.8-1.4-12c0-29,23.6-52.6,52.6-52.6c15.1,0,28.8,6.4,38.4,16.6 c12-2.4,23.2-6.7,33.4-12.8c-3.9,12.3-12.3,22.6-23.1,29.1c10.6-1.3,20.8-4.1,30.2-8.3C234.4,344.5,225.5,353.7,215.2,361.2z"></path>
    </g>
  </symbol>
  <symbol fill="#000000" version="1.1" id="youtube" xmlns="http://www.w3.org/2000/svg" xmlns:xlink="http://www.w3.org/1999/xlink" xml:space="preserve" viewBox="-143 145 512 512">
    <g id="SVGRepo_bgCarrier" stroke-width="0"></g>
    <g id="SVGRepo_tracerCarrier" stroke-linecap="round" stroke-linejoin="round"></g>
    <g id="SVGRepo_iconCarrier">
      <g>
        <polygon points="78.9,450.3 162.7,401.1 78.9,351.9 "></polygon>
        <path d="M113,145c-141.4,0-256,114.6-256,256s114.6,256,256,256s256-114.6,256-256S254.4,145,113,145z M241,446.8L241,446.8 c0,44.1-44.1,44.1-44.1,44.1H29.1c-44.1,0-44.1-44.1-44.1-44.1v-91.5c0-44.1,44.1-44.1,44.1-44.1h167.8c44.1,0,44.1,44.1,44.1,44.1 V446.8z"></path>
      </g>
    </g>
  </symbol>
</svg>